<mxfile host="app.diagrams.net" modified="2021-08-14T13:20:47.838Z" agent="5.0 (iPhone; CPU iPhone OS 14_6 like Mac OS X) AppleWebKit/605.1.15 (KHTML, like Gecko) Version/14.1.1 Mobile/15E148 Safari/604.1" etag="uiQU2B3BM8lcaZPWgT_C" version="14.9.6" type="github">
  <diagram id="7nGLe27AD3spwdZPoaVN" name="Page-1">
    <mxGraphModel dx="911" dy="249" grid="1" gridSize="10" guides="1" tooltips="1" connect="1" arrows="1" fold="1" page="1" pageScale="1" pageWidth="827" pageHeight="1169" math="0" shadow="0">
      <root>
        <mxCell id="0" />
        <mxCell id="1" parent="0" />
        <mxCell id="K2DEXOCubkTfrxZ8ljIj-1" value="" style="ellipse;whiteSpace=wrap;html=1;" vertex="1" parent="1">
          <mxGeometry x="370" y="360" width="180" height="80" as="geometry" />
        </mxCell>
      </root>
    </mxGraphModel>
  </diagram>
</mxfile>
